<?xml version="1.0" encoding="UTF-8"?>
<svg width="421px" height="93px" viewBox="0 0 421 93" version="1.1" xmlns="http://www.w3.org/2000/svg" xmlns:xlink="http://www.w3.org/1999/xlink">
    <!-- Generator: Sketch 50.2 (55047) - http://www.bohemiancoding.com/sketch -->
    <title>logo-orv</title>
    <desc>Created with Sketch.</desc>
    <defs>
        <polygon id="path-1" points="0 99.2129 425.197 99.2129 425.197 -0.0001 0 -0.0001"></polygon>
        <polygon id="path-3" points="0 99.2129 425.197 99.2129 425.197 -0.0001 0 -0.0001"></polygon>
        <polygon id="path-5" points="0 99.2129 425.197 99.2129 425.197 -0.0001 0 -0.0001"></polygon>
        <polygon id="path-7" points="0 99.2129 425.197 99.2129 425.197 -0.0001 0 -0.0001"></polygon>
        <polygon id="path-9" points="0 99.2129 425.197 99.2129 425.197 -0.0001 0 -0.0001"></polygon>
        <polygon id="path-11" points="0 99.2129 425.197 99.2129 425.197 -0.0001 0 -0.0001"></polygon>
        <polygon id="path-13" points="0 99.2129 425.197 99.2129 425.197 -0.0001 0 -0.0001"></polygon>
        <polygon id="path-15" points="0 99.2129 425.197 99.2129 425.197 -0.0001 0 -0.0001"></polygon>
        <polygon id="path-17" points="0 99.2129 425.197 99.2129 425.197 -0.0001 0 -0.0001"></polygon>
        <polygon id="path-19" points="0 99.2129 425.197 99.2129 425.197 -0.0001 0 -0.0001"></polygon>
        <polygon id="path-21" points="0 99.2129 425.197 99.2129 425.197 -0.0001 0 -0.0001"></polygon>
        <polygon id="path-23" points="0 99.2129 425.197 99.2129 425.197 -0.0001 0 -0.0001"></polygon>
        <polygon id="path-25" points="0 99.2129 425.197 99.2129 425.197 -0.0001 0 -0.0001"></polygon>
        <polygon id="path-27" points="0 99.2129 425.197 99.2129 425.197 -0.0001 0 -0.0001"></polygon>
        <polygon id="path-29" points="0 99.2129 425.197 99.2129 425.197 -0.0001 0 -0.0001"></polygon>
        <polygon id="path-31" points="0 99.2129 425.197 99.2129 425.197 -0.0001 0 -0.0001"></polygon>
        <polygon id="path-33" points="0 99.2129 425.197 99.2129 425.197 -0.0001 0 -0.0001"></polygon>
        <polygon id="path-35" points="0 99.2129 425.197 99.2129 425.197 -0.0001 0 -0.0001"></polygon>
        <polygon id="path-37" points="0 99.2129 425.197 99.2129 425.197 -0.0001 0 -0.0001"></polygon>
        <polygon id="path-39" points="0 99.2129 425.197 99.2129 425.197 -0.0001 0 -0.0001"></polygon>
        <polygon id="path-41" points="0 99.2129 425.197 99.2129 425.197 -0.0001 0 -0.0001"></polygon>
        <polygon id="path-43" points="0 99.2129 425.197 99.2129 425.197 -0.0001 0 -0.0001"></polygon>
        <polygon id="path-45" points="0 99.2129 425.197 99.2129 425.197 -0.0001 0 -0.0001"></polygon>
        <polygon id="path-47" points="0 99.2129 425.197 99.2129 425.197 -0.0001 0 -0.0001"></polygon>
        <polygon id="path-49" points="0 99.2129 425.197 99.2129 425.197 -0.0001 0 -0.0001"></polygon>
        <polygon id="path-51" points="0 99.2129 425.197 99.2129 425.197 -0.0001 0 -0.0001"></polygon>
        <polygon id="path-53" points="0 99.2129 425.197 99.2129 425.197 -0.0001 0 -0.0001"></polygon>
        <polygon id="path-55" points="0 99.2129 425.197 99.2129 425.197 -0.0001 0 -0.0001"></polygon>
        <polygon id="path-57" points="0 99.2129 425.197 99.2129 425.197 -0.0001 0 -0.0001"></polygon>
        <polygon id="path-59" points="0 99.2129 425.197 99.2129 425.197 -0.0001 0 -0.0001"></polygon>
        <polygon id="path-61" points="0 99.2129 425.197 99.2129 425.197 -0.0001 0 -0.0001"></polygon>
        <polygon id="path-63" points="0 99.2129 425.197 99.2129 425.197 -0.0001 0 -0.0001"></polygon>
        <polygon id="path-65" points="0 99.2129 425.197 99.2129 425.197 -0.0001 0 -0.0001"></polygon>
    </defs>
    <g id="Page-1" stroke="none" stroke-width="1" fill="none" fill-rule="evenodd">
        <g id="logo-orv" transform="translate(-2.000000, -3.000000)">
            <path d="M87.8086,85.5205 C87.5576,85.4825 87.3826,85.2465 87.4206,84.9945 L90.6026,63.8325 C90.6416,63.5805 90.4666,63.3435 90.2156,63.3065 L85.5536,62.6055 C85.3026,62.5685 85.1276,62.3325 85.1656,62.0805 L86.1756,55.3615 C86.2136,55.1095 86.4506,54.9355 86.7016,54.9725 L91.3646,55.6765 C91.6156,55.7135 91.8386,55.6255 91.8606,55.4815 C91.8826,55.3355 92.1056,55.2485 92.3566,55.2875 L95.3346,55.7355 C95.5856,55.7725 95.7736,55.9215 95.7516,56.0655 C95.7296,56.2095 95.9176,56.3595 96.1686,56.3965 L100.8346,57.0995 C101.0856,57.1365 101.2606,57.3735 101.2226,57.6245 L100.2116,64.3395 C100.1736,64.5915 99.9366,64.7655 99.6856,64.7285 L95.0206,64.0295 C94.7696,63.9925 94.5336,64.1665 94.4956,64.4175 L91.3126,85.5815 C91.2746,85.8335 91.0376,86.0065 90.7876,85.9685 L87.8086,85.5205 Z" id="Fill-1" fill="#FFFFFF" fill-rule="nonzero"></path>
            <path d="M24.3516,85.625 C24.0456,85.625 23.7796,85.429 23.6876,85.136 L18.3466,68.172 C18.3326,68.133 18.3096,68.096 18.2796,68.062 C18.1766,68.063 18.0776,68.065 17.9746,68.065 C12.6406,68.065 8.9766,65.32 7.6576,60.338 C7.6216,60.201 7.5936,60.068 7.5656,59.934 L7.5396,59.812 C6.8616,56.683 7.5466,53.646 9.4696,51.264 C11.3376,48.948 14.1696,47.564 17.0476,47.564 C18.9386,47.564 20.7776,48.163 22.3626,49.294 L22.4146,49.33 L22.4226,49.344 C23.2016,49.977 23.4756,50.77 23.3666,51.088 L23.2846,51.32 L23.0096,51.349 C22.8846,51.341 22.8366,51.309 22.6746,51.207 C22.3146,50.978 21.3646,50.366 20.5226,50.247 C18.5006,49.953 16.6496,50.795 15.5426,51.598 C13.3256,53.215 12.7206,56.437 13.9086,59.434 C14.4346,60.759 16.0626,62.498 19.0286,62.498 L19.0306,62.498 C19.7576,62.498 20.5236,62.377 21.2996,62.135 L21.3226,62.127 L21.3446,62.123 C21.3846,62.119 21.4236,62.115 21.4646,62.115 C21.8186,62.115 22.0516,62.385 22.1436,62.617 L23.0816,65.45 C23.1896,65.75 23.1016,66.155 22.8786,66.382 L22.8626,66.402 L22.2786,66.839 L22.2496,66.868 C22.2146,66.9 22.2046,66.954 22.2116,66.97 L27.4516,83.977 C27.5056,84.152 27.4896,84.339 27.4036,84.504 C27.3176,84.667 27.1726,84.787 26.9956,84.842 L24.5556,85.594 C24.4896,85.615 24.4206,85.625 24.3516,85.625" id="Fill-3" fill="#FFFFFF" fill-rule="nonzero"></path>
            <path d="M58.6787,3.3735 C58.4897,3.3735 58.2517,3.5055 58.1547,3.6695 L56.6837,6.1145 C56.5847,6.2785 56.4237,6.2765 56.3267,6.1125 L54.9227,3.7315 C54.8247,3.5665 54.5907,3.4335 54.3997,3.4335 L53.3457,3.4335 C53.1547,3.4335 52.9227,3.5685 52.8277,3.7335 L51.4527,6.1315 C51.3587,6.2945 51.2007,6.2965 51.1027,6.1345 L49.5997,3.6065 C49.4997,3.4435 49.2647,3.3095 49.0747,3.3095 L47.0117,3.3095 C46.8857,3.3095 46.8077,3.4095 46.8417,3.5315 L48.4937,9.6615 C48.5267,9.7835 48.6577,9.8835 48.7847,9.8835 L58.9937,9.8835 C59.1207,9.8835 59.2497,9.7835 59.2807,9.6595 L60.7837,3.5975 C60.8147,3.4745 60.7357,3.3735 60.6087,3.3735 L58.6787,3.3735 Z" id="Fill-5" fill="#FFFFFF" fill-rule="nonzero"></path>
            <path d="M41.3994,19.1245 C41.3994,19.1245 43.5824,21.0625 44.3484,21.0625 C45.1144,21.0625 47.5344,19.6955 48.1834,19.6955 C49.3624,19.6955 50.8044,21.0845 51.7474,22.7945 C50.9194,22.5645 48.8314,22.2035 48.3024,22.2035 C47.7714,22.2035 45.9994,23.7435 44.8194,23.7435 C43.6404,23.7435 41.6954,21.7475 41.3994,19.1245" id="Fill-7" fill="#FFFFFF" fill-rule="nonzero"></path>
            <path d="M51.145,15.0264 C50.129,15.0304 49.731,14.6174 49.289,13.5244 C49.82,13.3464 50.588,13.3004 51.208,13.3084 C51.661,13.3164 52.208,13.3204 53.031,13.5444 C52.52,14.7424 52.174,15.0244 51.145,15.0264 M98.795,42.0684 C96.488,41.2594 95.737,40.6794 95.644,40.2434 C95.547,39.7934 97.669,40.1864 101.212,39.1194 C108.938,36.7884 111.637,31.5534 111.235,30.7804 C110.873,30.0894 106.603,31.9444 101.312,31.2304 C99.32,30.9624 97.854,29.6964 98.094,29.4114 C98.372,29.0874 102.822,27.9074 105.266,26.3204 C108.787,24.0414 110.744,20.2374 110.318,19.5274 C109.921,18.8654 106.844,20.6444 102.208,20.8054 C101.156,20.8434 98.745,20.4234 98.828,19.8594 C98.801,19.4894 102.755,18.2574 104.937,15.5474 C106.797,13.2364 107.34,11.0044 107.047,10.3614 C106.874,9.9854 102.112,11.2844 97.648,11.2304 C94.722,11.1944 92.56,10.9584 91.429,10.8444 C90.127,10.7134 90.037,11.2424 90.113,12.1184 C90.184,12.9464 90.845,21.7384 90.416,27.1924 C89.972,32.8594 87.448,39.7164 82.804,43.8304 C80.544,45.8354 76.27,48.7524 70.363,48.8184 L70.363,46.9894 C72.527,46.9974 78.22,46.6314 83.294,40.6324 C89.227,33.6214 89.679,25.3264 88.417,11.4964 C88.337,10.4844 87.619,10.3834 86.485,10.2954 C85.334,10.2094 82.56,10.0304 81.504,10.1124 C80.447,10.1944 77.834,10.8274 78.004,14.0794 C78.111,16.1154 78.9,18.0494 79.573,20.7084 C79.985,22.3334 80.495,25.9614 79.031,29.2114 C77.576,32.4454 75.423,37.1104 70.363,38.1444 L70.363,36.2654 L65.621,36.2654 C67.627,24.7314 63.526,19.1274 63.143,18.6764 C62.755,18.2244 63.278,17.9384 63.786,18.0934 C66.955,19.0654 69.715,17.8134 70.166,16.8424 C65.188,16.1304 62.594,14.3374 61.885,13.6294 C65.609,12.7414 66.853,11.8464 66.853,11.1324 L48.396,11.1324 C43.289,11.1324 43.871,15.2084 44.063,16.8254 C44.063,16.8254 46.457,16.6294 46.911,16.6294 C48.332,16.6294 50.597,18.5694 51.696,19.8634 C52.794,21.1584 53.978,23.0324 53.978,23.0324 C53.978,23.0324 53.07,24.1314 52.617,24.1314 C52.165,24.1314 50.742,23.8734 49.834,23.6134 C48.931,23.3564 49.023,24.4344 49.384,24.7124 C51.388,26.2664 52.925,29.6924 52.859,31.0524 C52.8,32.2564 50.581,35.5474 50.258,36.2654 L43.742,36.2654 L43.742,38.1424 C38.684,37.1084 36.53,32.4434 35.076,29.2114 C33.611,25.9594 34.123,22.3314 34.533,20.7064 C35.207,18.0494 35.995,16.1134 36.101,14.0774 C36.272,10.8274 33.659,10.1934 32.603,10.1124 C31.545,10.0304 28.772,10.2074 27.621,10.2954 C26.486,10.3814 25.769,10.4834 25.687,11.4964 C24.426,25.3264 24.881,33.6194 30.812,40.6324 C35.888,46.6314 41.582,46.9954 43.744,46.9884 L43.744,48.8184 C37.838,48.7504 33.562,45.8334 31.303,43.8284 C26.661,39.7144 24.135,32.8594 23.689,27.1924 C23.262,21.7364 23.924,12.9444 23.995,12.1164 C24.069,11.2404 23.98,10.7134 22.677,10.8444 C21.547,10.9584 19.385,11.1934 16.458,11.2284 C11.995,11.2824 7.232,9.9834 7.059,10.3614 C6.764,11.0024 7.311,13.2364 9.17,15.5464 C11.352,18.2574 15.305,19.4874 15.278,19.8594 C15.359,20.4224 12.951,20.8414 11.9,20.8054 C7.26,20.6424 4.185,18.8634 3.788,19.5264 C3.361,20.2354 5.319,24.0394 8.84,26.3184 C11.283,27.9054 15.735,29.0864 16.01,29.4094 C16.252,29.6964 14.787,30.9604 12.794,31.2304 C7.504,31.9434 3.233,30.0894 2.873,30.7784 C2.47,31.5514 5.166,36.7864 12.893,39.1174 C16.437,40.1864 18.558,39.7914 18.46,40.2434 C18.368,40.6794 17.617,41.2594 15.312,42.0684 C8.694,44.3904 4.287,43.2864 4.22,44.1734 C4.17,44.8634 9.896,49.8764 17.067,49.2364 C22.289,48.7724 24.447,47.5474 24.832,47.8044 C25.265,48.0894 24.612,48.9664 21.608,50.8164 C16.295,54.0844 12.452,54.5904 12.54,55.2664 C12.643,56.0534 18.005,58.9874 27.371,55.7154 C30.346,54.6754 33.07,53.7844 33.211,54.2884 C33.397,54.9414 32.634,56.1064 31.259,57.6314 C28.802,60.3684 24.22,62.0294 24.285,62.6254 C24.392,63.5954 31.997,63.9474 37.187,60.6594 C40.47,58.5784 41.406,56.9664 42.544,55.4184 C42.969,54.8454 43.666,53.8284 43.744,54.5634 L43.744,55.7974 C42.423,58.2804 38.619,64.8764 37.563,66.6324 C36.343,68.6674 33.984,71.7624 31.138,73.1424 C28.29,74.5274 26.2,73.9484 25.062,73.9484 C25.062,73.9484 20.449,74.0034 18.985,74.2494 C17.853,74.4634 18.688,77.7084 18.967,78.6724 C19.239,79.6054 20.29,82.5214 22.084,82.4904 C25.151,82.0654 25.532,81.9794 26.804,81.4724 C28.075,80.9634 28.927,79.2614 31.039,77.7174 C33.154,76.1724 35.816,75.5764 37.216,74.8474 C38.75,74.0494 40.517,73.0054 40.653,72.3294 C40.972,70.7334 41.955,70.6204 43.337,70.2104 C44.655,69.8284 46.335,66.7194 47.196,64.6694 C48.978,66.6564 51.575,68.2054 55.265,68.5774 C54.457,72.2324 50.748,72.3944 47.642,73.5824 C45,74.5934 45.001,76.1874 44.612,78.0154 C46.461,77.8464 51.014,78.2854 54.374,76.1384 C54.502,77.6664 53.545,79.4424 51.212,80.2884 C48.758,81.1744 45.878,81.4954 43.768,81.9034 C41.182,82.4004 39.035,85.6254 39.171,87.2674 C39.239,88.0644 44.926,87.0624 46.191,86.9334 C47.403,86.8104 51.749,86.4104 53.348,86.5664 C54.808,86.7104 54.71,88.1104 54.505,88.7044 C53.711,91.0184 50.969,91.5734 50.174,91.6304 C49.384,91.6914 50.174,92.5474 50.846,93.0344 C51.517,93.5234 53.328,93.6644 53.956,93.6384 C54.577,93.6124 55.168,94.3944 55.361,94.7884 C55.575,95.2324 56.321,95.9044 57.052,95.9044 C57.785,95.9044 58.532,95.2324 58.746,94.7884 C58.938,94.3944 59.529,93.6124 60.15,93.6384 C60.78,93.6644 62.591,93.5234 63.262,93.0344 C63.931,92.5474 64.724,91.6914 63.931,91.6304 C63.136,91.5734 60.395,91.0184 59.602,88.7044 C59.397,88.1104 59.297,86.7104 60.759,86.5664 C62.358,86.4104 66.702,86.8104 67.916,86.9334 C69.18,87.0624 74.743,88.0684 74.701,87.5034 C74.553,85.4244 72.924,82.4004 70.336,81.9034 C68.228,81.4954 65.349,81.1744 62.895,80.2884 C60.562,79.4424 59.605,77.6664 59.731,76.1384 C60.403,77.1754 62.026,77.3524 63.915,77.4504 C65.208,77.5214 68.16,77.6194 69.886,77.6854 C69.088,75.4954 69.107,74.5934 66.464,73.5824 C63.357,72.3944 59.642,72.2324 58.84,68.5674 C58.926,68.5554 59.004,68.5404 59.091,68.5264 C61.495,68.2264 63.429,67.4144 64.968,66.3054 C65,66.2854 65.033,66.2624 65.067,66.2374 C65.159,66.1704 65.248,66.1004 65.338,66.0294 C65.909,65.5904 66.429,65.1204 66.886,64.6104 C67.742,66.6624 69.44,69.8264 70.769,70.2124 C72.15,70.6204 73.134,70.7334 73.452,72.3314 C73.591,73.0054 75.354,74.0494 76.89,74.8474 C78.291,75.5764 80.953,76.1724 83.069,77.7174 C85.181,79.2634 86.03,80.9634 87.304,81.4734 C88.575,81.9814 88.955,82.0654 92.023,82.4904 C93.817,82.5234 94.868,79.6074 95.138,78.6744 C95.418,77.7104 96.252,74.4634 95.123,74.2494 C93.658,74.0034 89.046,73.9484 89.046,73.9484 C87.905,73.9484 85.815,74.5294 82.968,73.1444 C80.122,71.7624 77.764,68.6694 76.545,66.6344 C75.487,64.8784 71.687,58.2844 70.363,55.7984 L70.363,54.5534 C70.449,53.8384 71.14,54.8474 71.562,55.4204 C72.701,56.9664 73.636,58.5784 76.92,60.6594 C82.11,63.9474 89.712,63.5954 89.821,62.6254 C89.888,62.0294 85.303,60.3684 82.846,57.6334 C81.472,56.1064 80.71,54.9414 80.895,54.2884 C81.037,53.7844 83.761,54.6754 86.736,55.7194 C96.102,58.9894 101.465,56.0554 101.565,55.2684 C101.655,54.5924 97.809,54.0864 92.499,50.8184 C89.493,48.9684 88.84,48.0914 89.273,47.8044 C89.66,47.5494 91.815,48.7734 97.039,49.2384 C104.21,49.8764 109.937,44.8674 109.884,44.1754 C109.82,43.2864 105.413,44.3904 98.795,42.0684" id="Fill-9" fill="#FFFFFF" fill-rule="nonzero"></path>
            <g id="Fill-11-Clipped">
                <mask id="mask-2" fill="white">
                    <use xlink:href="#path-1"></use>
                </mask>
                <g id="path-1"></g>
                <polygon id="Fill-11" fill="#D9222A" fill-rule="nonzero" mask="url(#mask-2)" points="45.764 46.6209 68.341 46.6209 68.341 38.2309 45.764 38.2309"></polygon>
            </g>
            <g id="Fill-13-Clipped">
                <mask id="mask-4" fill="white">
                    <use xlink:href="#path-3"></use>
                </mask>
                <g id="path-1"></g>
                <polygon id="Fill-13" fill="#FFFFFF" fill-rule="nonzero" mask="url(#mask-4)" points="45.764 55.7159 68.341 55.7159 68.341 46.6209 45.764 46.6209"></polygon>
            </g>
            <g id="Fill-14-Clipped">
                <mask id="mask-6" fill="white">
                    <use xlink:href="#path-5"></use>
                </mask>
                <g id="path-1"></g>
                <path d="M56.9771,66.5928 C46.0081,66.5928 45.7661,55.7158 45.7661,55.7158 L68.3431,55.7158 C68.3431,55.7158 67.9521,66.5928 56.9771,66.5928" id="Fill-14" fill="#D9222A" fill-rule="nonzero" mask="url(#mask-6)"></path>
            </g>
            <g id="Fill-15-Clipped">
                <mask id="mask-8" fill="white">
                    <use xlink:href="#path-7"></use>
                </mask>
                <g id="path-1"></g>
                <path d="M132.6196,23.4956 C132.1176,23.4956 131.6876,23.3156 131.3256,22.9556 C130.9656,22.5946 130.7846,22.1596 130.7846,21.6466 C130.7846,21.1366 130.9656,20.6996 131.3256,20.3356 C131.6876,19.9776 132.1236,19.7956 132.6356,19.7956 C133.1456,19.7956 133.5816,19.9706 133.9436,20.3206 C134.3046,20.6736 134.4866,21.1056 134.4866,21.6156 C134.4866,22.1256 134.3006,22.5686 133.9296,22.9416 C133.5576,23.3116 133.1226,23.4956 132.6196,23.4956 M127.0536,23.4956 C126.5316,23.4956 126.0956,23.3156 125.7456,22.9556 C125.3936,22.5946 125.2186,22.1596 125.2186,21.6466 C125.2186,21.1366 125.3936,20.6996 125.7456,20.3356 C126.0956,19.9776 126.5316,19.7956 127.0536,19.7956 C127.5766,19.7956 128.0156,19.9706 128.3756,20.3206 C128.7376,20.6736 128.9196,21.1056 128.9196,21.6156 C128.9196,22.1256 128.7376,22.5686 128.3756,22.9416 C128.0156,23.3116 127.5766,23.4956 127.0536,23.4956 M135.2826,30.0846 C133.8496,28.6026 132.0866,27.8596 130.0016,27.8596 C127.9156,27.8596 126.1556,28.6026 124.7226,30.0846 C123.2866,31.5716 122.5696,33.3706 122.5696,35.4856 C122.5696,37.6026 123.2866,39.4016 124.7226,40.8876 C126.1556,42.3706 127.9156,43.1146 130.0016,43.1146 C132.0866,43.1146 133.8496,42.3706 135.2826,40.8876 C136.7156,39.4016 137.4326,37.6026 137.4326,35.4856 C137.4326,33.3706 136.7156,31.5716 135.2826,30.0846 M137.8856,43.2486 C135.7576,45.3226 133.1316,46.3636 130.0016,46.3636 C126.8716,46.3636 124.2446,45.3226 122.1206,43.2486 C119.9926,41.1736 118.9296,38.5846 118.9296,35.4856 C118.9296,32.3866 119.9926,29.8006 122.1206,27.7246 C124.2446,25.6496 126.8716,24.6096 130.0016,24.6096 C133.1316,24.6096 135.7576,25.6496 137.8856,27.7246 C140.0096,29.8006 141.0746,32.3866 141.0746,35.4856 C141.0746,38.5846 140.0096,41.1736 137.8856,43.2486" id="Fill-15" fill="#FFFFFF" fill-rule="nonzero" mask="url(#mask-8)"></path>
            </g>
            <g id="Fill-16-Clipped">
                <mask id="mask-10" fill="white">
                    <use xlink:href="#path-9"></use>
                </mask>
                <g id="path-1"></g>
                <path d="M151.019,27.8897 C149.983,27.8897 149.138,28.0997 148.475,28.5217 C147.812,28.9417 147.481,29.5797 147.481,30.4297 C147.481,31.2847 147.812,31.9367 148.475,32.3867 C149.138,32.8367 150.546,33.3257 152.703,33.8467 C154.858,34.3697 156.483,35.1027 157.575,36.0437 C158.669,36.9877 159.216,38.3737 159.216,40.2117 C159.216,42.0457 158.525,43.5337 157.14,44.6767 C155.758,45.8207 153.941,46.3917 151.695,46.3917 C148.404,46.3917 145.487,45.2607 142.939,42.9937 L145.164,40.3147 C147.292,42.1617 149.497,43.0807 151.784,43.0807 C152.929,43.0807 153.834,42.8367 154.506,42.3447 C155.179,41.8527 155.517,41.2017 155.517,40.3907 C155.517,39.5777 155.199,38.9467 154.567,38.4947 C153.936,38.0437 152.849,37.6337 151.303,37.2617 C149.758,36.8917 148.585,36.5517 147.785,36.2367 C146.982,35.9267 146.269,35.5207 145.645,35.0197 C144.403,34.0777 143.781,32.6337 143.781,30.6887 C143.781,28.7427 144.488,27.2407 145.902,26.1897 C147.316,25.1367 149.066,24.6097 151.153,24.6097 C152.498,24.6097 153.83,24.8317 155.154,25.2727 C156.478,25.7117 157.622,26.3357 158.583,27.1367 L156.688,29.8147 C156.066,29.2527 155.225,28.7917 154.162,28.4307 C153.098,28.0687 152.05,27.8897 151.019,27.8897" id="Fill-16" fill="#FFFFFF" fill-rule="nonzero" mask="url(#mask-10)"></path>
            </g>
            <g id="Fill-17-Clipped">
                <mask id="mask-12" fill="white">
                    <use xlink:href="#path-11"></use>
                </mask>
                <g id="path-1"></g>
                <polygon id="Fill-17" fill="#FFFFFF" fill-rule="nonzero" mask="url(#mask-12)" points="170.6489 28.3711 170.6489 46.1521 167.1009 46.1521 167.1009 28.3711 160.7219 28.3711 160.7219 25.1221 177.0279 25.1221 177.0279 28.3711"></polygon>
            </g>
            <g id="Fill-18-Clipped">
                <mask id="mask-14" fill="white">
                    <use xlink:href="#path-13"></use>
                </mask>
                <g id="path-1"></g>
                <polygon id="Fill-18" fill="#FFFFFF" fill-rule="nonzero" mask="url(#mask-14)" points="194.7485 25.1226 194.7485 28.4616 183.5255 28.4616 183.5255 34.0256 193.6055 34.0256 193.6055 37.1866 183.5255 37.1866 183.5255 42.8106 195.1085 42.8106 195.1085 46.1526 179.9745 46.1526 179.9745 25.1226"></polygon>
            </g>
            <g id="Fill-19-Clipped">
                <mask id="mask-16" fill="white">
                    <use xlink:href="#path-15"></use>
                </mask>
                <g id="path-1"></g>
                <path d="M210.8145,34.9273 C211.5355,34.3103 211.8965,33.3093 211.8965,31.9363 C211.8965,30.5633 211.5245,29.6223 210.7835,29.1093 C210.0415,28.5953 208.7175,28.3383 206.8105,28.3383 L202.3005,28.3383 L202.3005,35.8633 L206.7205,35.8633 C208.7275,35.8633 210.0915,35.5523 210.8145,34.9273 M215.5385,31.9503 C215.5385,35.4193 214.0225,37.6063 210.9935,38.5093 L216.5015,46.1523 L211.9865,46.1523 L206.9625,39.0823 L202.3005,39.0823 L202.3005,46.1523 L198.7495,46.1523 L198.7495,25.1223 L206.5715,25.1223 C209.7805,25.1223 212.0785,25.6643 213.4615,26.7453 C214.8425,27.8293 215.5385,29.5653 215.5385,31.9503" id="Fill-19" fill="#FFFFFF" fill-rule="nonzero" mask="url(#mask-16)"></path>
            </g>
            <g id="Fill-20-Clipped">
                <mask id="mask-18" fill="white">
                    <use xlink:href="#path-17"></use>
                </mask>
                <g id="path-1"></g>
                <path d="M231.8135,34.9273 C232.5385,34.3103 232.8995,33.3093 232.8995,31.9363 C232.8995,30.5633 232.5265,29.6223 231.7845,29.1093 C231.0425,28.5953 229.7195,28.3383 227.8135,28.3383 L223.2995,28.3383 L223.2995,35.8633 L227.7195,35.8633 C229.7275,35.8633 231.0925,35.5523 231.8135,34.9273 M236.5385,31.9503 C236.5385,35.4193 235.0245,37.6063 231.9975,38.5093 L237.5025,46.1523 L232.9875,46.1523 L227.9635,39.0823 L223.2995,39.0823 L223.2995,46.1523 L219.7505,46.1523 L219.7505,25.1223 L227.5735,25.1223 C230.7805,25.1223 233.0775,25.6643 234.4635,26.7453 C235.8445,27.8293 236.5385,29.5653 236.5385,31.9503" id="Fill-20" fill="#FFFFFF" fill-rule="nonzero" mask="url(#mask-18)"></path>
            </g>
            <g id="Fill-21-Clipped">
                <mask id="mask-20" fill="white">
                    <use xlink:href="#path-19"></use>
                </mask>
                <g id="path-1"></g>
                <polygon id="Fill-21" fill="#FFFFFF" fill-rule="nonzero" mask="url(#mask-20)" points="255.5225 25.1226 255.5225 28.4616 244.3015 28.4616 244.3015 34.0256 254.3795 34.0256 254.3795 37.1866 244.3015 37.1866 244.3015 42.8106 255.8855 42.8106 255.8855 46.1526 240.7495 46.1526 240.7495 25.1226"></polygon>
            </g>
            <g id="Fill-22-Clipped">
                <mask id="mask-22" fill="white">
                    <use xlink:href="#path-21"></use>
                </mask>
                <g id="path-1"></g>
                <polygon id="Fill-22" fill="#FFFFFF" fill-rule="nonzero" mask="url(#mask-22)" points="259.524 46.1529 263.075 46.1529 263.075 25.1229 259.524 25.1229"></polygon>
            </g>
            <g id="Fill-23-Clipped">
                <mask id="mask-24" fill="white">
                    <use xlink:href="#path-23"></use>
                </mask>
                <g id="path-1"></g>
                <path d="M277.6064,42.9321 C278.8314,42.9321 279.8814,42.7281 280.7644,42.3171 C281.6474,41.9061 282.5714,41.2461 283.5324,40.3461 L285.8194,42.6921 C283.5944,45.1601 280.8894,46.3911 277.7114,46.3911 C274.5324,46.3911 271.8974,45.3681 269.7974,43.3241 C267.7024,41.2761 266.6534,38.6891 266.6534,35.5591 C266.6534,32.4321 267.7234,29.8261 269.8584,27.7401 C271.9954,25.6531 274.6924,24.6101 277.9544,24.6101 C281.2104,24.6101 283.9324,25.8121 286.1204,28.2191 L283.8664,30.6881 C282.8604,29.7241 281.9134,29.0531 281.0224,28.6731 C280.1294,28.2891 279.0814,28.1001 277.8774,28.1001 C275.7514,28.1001 273.9634,28.7881 272.5204,30.1601 C271.0774,31.5351 270.3544,33.2891 270.3544,35.4251 C270.3544,37.5621 271.0714,39.3471 272.5064,40.7831 C273.9424,42.2151 275.6394,42.9321 277.6064,42.9321" id="Fill-23" fill="#FFFFFF" fill-rule="nonzero" mask="url(#mask-24)"></path>
            </g>
            <g id="Fill-24-Clipped">
                <mask id="mask-26" fill="white">
                    <use xlink:href="#path-25"></use>
                </mask>
                <g id="path-1"></g>
                <polygon id="Fill-24" fill="#FFFFFF" fill-rule="nonzero" mask="url(#mask-26)" points="289.251 46.1524 289.251 25.1224 292.8 25.1224 292.8 34.2374 303.241 34.2374 303.241 25.1224 306.79 25.1224 306.79 46.1524 303.241 46.1524 303.241 37.5484 292.8 37.5484 292.8 46.1524"></polygon>
            </g>
            <g id="Fill-25-Clipped">
                <mask id="mask-28" fill="white">
                    <use xlink:href="#path-27"></use>
                </mask>
                <g id="path-1"></g>
                <polygon id="Fill-25" fill="#FFFFFF" fill-rule="nonzero" mask="url(#mask-28)" points="311.722 46.1529 315.275 46.1529 315.275 25.1229 311.722 25.1229"></polygon>
            </g>
            <g id="Fill-26-Clipped">
                <mask id="mask-30" fill="white">
                    <use xlink:href="#path-29"></use>
                </mask>
                <g id="path-1"></g>
                <path d="M326.5713,27.8897 C325.5403,27.8897 324.6903,28.0997 324.0283,28.5217 C323.3683,28.9417 323.0383,29.5797 323.0383,30.4297 C323.0383,31.2847 323.3683,31.9367 324.0283,32.3867 C324.6903,32.8367 326.1003,33.3257 328.2573,33.8467 C330.4133,34.3697 332.0383,35.1027 333.1303,36.0437 C334.2233,36.9877 334.7723,38.3737 334.7723,40.2117 C334.7723,42.0457 334.0793,43.5337 332.6943,44.6767 C331.3093,45.8207 329.4953,46.3917 327.2493,46.3917 C323.9603,46.3917 321.0423,45.2607 318.4913,42.9937 L320.7193,40.3147 C322.8443,42.1617 325.0513,43.0807 327.3393,43.0807 C328.4813,43.0807 329.3893,42.8367 330.0593,42.3447 C330.7353,41.8527 331.0693,41.2017 331.0693,40.3907 C331.0693,39.5777 330.7533,38.9467 330.1223,38.4947 C329.4893,38.0437 328.4033,37.6337 326.8563,37.2617 C325.3113,36.8917 324.1393,36.5517 323.3373,36.2367 C322.5323,35.9267 321.8213,35.5207 321.2023,35.0197 C319.9563,34.0777 319.3373,32.6337 319.3373,30.6887 C319.3373,28.7427 320.0443,27.2407 321.4563,26.1897 C322.8703,25.1367 324.6203,24.6097 326.7063,24.6097 C328.0503,24.6097 329.3853,24.8317 330.7103,25.2727 C332.0323,25.7117 333.1763,26.3357 334.1373,27.1367 L332.2433,29.8147 C331.6203,29.2527 330.7783,28.7917 329.7163,28.4307 C328.6513,28.0687 327.6023,27.8897 326.5713,27.8897" id="Fill-26" fill="#FFFFFF" fill-rule="nonzero" mask="url(#mask-30)"></path>
            </g>
            <g id="Fill-27-Clipped">
                <mask id="mask-32" fill="white">
                    <use xlink:href="#path-31"></use>
                </mask>
                <g id="path-1"></g>
                <path d="M347.8584,42.9321 C349.0814,42.9321 350.1334,42.7281 351.0164,42.3171 C351.8994,41.9061 352.8234,41.2461 353.7844,40.3461 L356.0694,42.6921 C353.8444,45.1601 351.1414,46.3911 347.9624,46.3911 C344.7844,46.3911 342.1494,45.3681 340.0494,43.3241 C337.9564,41.2761 336.9074,38.6891 336.9074,35.5591 C336.9074,32.4321 337.9734,29.8261 340.1124,27.7401 C342.2474,25.6531 344.9444,24.6101 348.2044,24.6101 C351.4624,24.6101 354.1844,25.8121 356.3724,28.2191 L354.1184,30.6881 C353.1144,29.7241 352.1634,29.0531 351.2724,28.6731 C350.3794,28.2891 349.3314,28.1001 348.1284,28.1001 C346.0034,28.1001 344.2154,28.7881 342.7704,30.1601 C341.3294,31.5351 340.6064,33.2891 340.6064,35.4251 C340.6064,37.5621 341.3234,39.3471 342.7544,40.7831 C344.1944,42.2151 345.8934,42.9321 347.8584,42.9321" id="Fill-27" fill="#FFFFFF" fill-rule="nonzero" mask="url(#mask-32)"></path>
            </g>
            <g id="Fill-28-Clipped">
                <mask id="mask-34" fill="white">
                    <use xlink:href="#path-33"></use>
                </mask>
                <g id="path-1"></g>
                <polygon id="Fill-28" fill="#FFFFFF" fill-rule="nonzero" mask="url(#mask-34)" points="359.501 46.1524 359.501 25.1224 363.052 25.1224 363.052 34.2374 373.491 34.2374 373.491 25.1224 377.04 25.1224 377.04 46.1524 373.491 46.1524 373.491 37.5484 363.052 37.5484 363.052 46.1524"></polygon>
            </g>
            <g id="Fill-29-Clipped">
                <mask id="mask-36" fill="white">
                    <use xlink:href="#path-35"></use>
                </mask>
                <g id="path-1"></g>
                <polygon id="Fill-29" fill="#FFFFFF" fill-rule="nonzero" mask="url(#mask-36)" points="396.749 25.1226 396.749 28.4616 385.526 28.4616 385.526 34.0256 395.604 34.0256 395.604 37.1866 385.526 37.1866 385.526 42.8106 397.108 42.8106 397.108 46.1526 381.976 46.1526 381.976 25.1226"></polygon>
            </g>
            <g id="Fill-30-Clipped">
                <mask id="mask-38" fill="white">
                    <use xlink:href="#path-37"></use>
                </mask>
                <g id="path-1"></g>
                <path d="M412.8154,34.9273 C413.5364,34.3103 413.8974,33.3093 413.8974,31.9363 C413.8974,30.5633 413.5264,29.6223 412.7864,29.1093 C412.0424,28.5953 410.7174,28.3383 408.8114,28.3383 L404.3014,28.3383 L404.3014,35.8633 L408.7214,35.8633 C410.7274,35.8633 412.0904,35.5523 412.8154,34.9273 M417.5384,31.9503 C417.5384,35.4193 416.0224,37.6063 412.9934,38.5093 L418.4994,46.1523 L413.9874,46.1523 L408.9634,39.0823 L404.3014,39.0823 L404.3014,46.1523 L400.7494,46.1523 L400.7494,25.1223 L408.5714,25.1223 C411.7804,25.1223 414.0774,25.6643 415.4604,26.7453 C416.8464,27.8293 417.5384,29.5653 417.5384,31.9503" id="Fill-30" fill="#FFFFFF" fill-rule="nonzero" mask="url(#mask-38)"></path>
            </g>
            <g id="Fill-31-Clipped">
                <mask id="mask-40" fill="white">
                    <use xlink:href="#path-39"></use>
                </mask>
                <g id="path-1"></g>
                <path d="M132.3481,65.7012 C133.0711,65.0802 133.4321,64.0802 133.4321,62.7052 C133.4321,61.3332 133.0601,60.3882 132.3211,59.8782 C131.5751,59.3662 130.2521,59.1102 128.3471,59.1102 L123.8341,59.1102 L123.8341,66.6332 L128.2561,66.6332 C130.2631,66.6332 131.6261,66.3212 132.3481,65.7012 M137.0721,62.7212 C137.0721,66.1902 135.5561,68.3792 132.5291,69.2802 L138.0351,76.9222 L133.5221,76.9222 L128.4981,69.8532 L123.8341,69.8532 L123.8341,76.9222 L120.2821,76.9222 L120.2821,55.8912 L128.1071,55.8912 C131.3161,55.8912 133.6121,56.4342 134.9961,57.5162 C136.3801,58.5992 137.0721,60.3382 137.0721,62.7212" id="Fill-31" fill="#FFFFFF" fill-rule="nonzero" mask="url(#mask-40)"></path>
            </g>
            <g id="Fill-32-Clipped">
                <mask id="mask-42" fill="white">
                    <use xlink:href="#path-41"></use>
                </mask>
                <g id="path-1"></g>
                <path d="M150.3691,72.1074 C151.3341,73.2334 152.6361,73.7944 154.2821,73.7944 C155.9271,73.7944 157.2301,73.2334 158.1931,72.1074 C159.1571,70.9834 159.6361,69.4614 159.6361,67.5354 L159.6361,55.8914 L163.1891,55.8914 L163.1891,67.6864 C163.1891,70.7144 162.3531,73.0464 160.6881,74.6804 C159.0241,76.3164 156.8901,77.1334 154.2821,77.1334 C151.6731,77.1334 149.5391,76.3164 147.8741,74.6804 C146.2091,73.0464 145.3741,70.7144 145.3741,67.6864 L145.3741,55.8914 L148.9261,55.8914 L148.9261,67.5354 C148.9261,69.4614 149.4071,70.9834 150.3691,72.1074" id="Fill-32" fill="#FFFFFF" fill-rule="nonzero" mask="url(#mask-42)"></path>
            </g>
            <g id="Fill-33-Clipped">
                <mask id="mask-44" fill="white">
                    <use xlink:href="#path-43"></use>
                </mask>
                <g id="path-1"></g>
                <path d="M187.5889,66.3906 C187.5889,61.5786 184.8289,59.1726 179.3149,59.1726 L175.7649,59.1726 L175.7649,73.5816 L179.7049,73.5816 C182.2529,73.5816 184.2049,72.9746 185.5579,71.7646 C186.9109,70.5486 187.5889,68.7576 187.5889,66.3906 M188.1299,58.6436 C190.1569,60.4816 191.1699,63.0326 191.1699,66.2996 C191.1699,69.5706 190.1859,72.1586 188.2199,74.0636 C186.2539,75.9706 183.2429,76.9216 179.1929,76.9216 L172.2139,76.9216 L172.2139,55.8916 L179.4349,55.8916 C183.2059,55.8916 186.1049,56.8096 188.1299,58.6436" id="Fill-33" fill="#FFFFFF" fill-rule="nonzero" mask="url(#mask-44)"></path>
            </g>
            <g id="Fill-34-Clipped">
                <mask id="mask-46" fill="white">
                    <use xlink:href="#path-45"></use>
                </mask>
                <g id="path-1"></g>
                <polygon id="Fill-34" fill="#FFFFFF" fill-rule="nonzero" mask="url(#mask-46)" points="213.9736 55.8916 213.9736 59.2296 202.7506 59.2296 202.7506 64.7946 212.8306 64.7946 212.8306 67.9576 202.7506 67.9576 202.7506 73.5816 214.3366 73.5816 214.3366 76.9216 199.2016 76.9216 199.2016 55.8916"></polygon>
            </g>
            <g id="Fill-35-Clipped">
                <mask id="mask-48" fill="white">
                    <use xlink:href="#path-47"></use>
                </mask>
                <g id="path-1"></g>
                <path d="M234.4033,65.7012 C235.1243,65.0802 235.4873,64.0802 235.4873,62.7052 C235.4873,61.3332 235.1143,60.3882 234.3703,59.8782 C233.6303,59.3662 232.3073,59.1102 230.4013,59.1102 L225.8873,59.1102 L225.8873,66.6332 L230.3093,66.6332 C232.3193,66.6332 233.6803,66.3212 234.4033,65.7012 M239.1263,62.7212 C239.1263,66.1902 237.6123,68.3792 234.5833,69.2802 L240.0913,76.9222 L235.5773,76.9222 L230.5533,69.8532 L225.8873,69.8532 L225.8873,76.9222 L222.3393,76.9222 L222.3393,55.8912 L230.1593,55.8912 C233.3683,55.8912 235.6653,56.4342 237.0513,57.5162 C238.4343,58.5992 239.1263,60.3382 239.1263,62.7212" id="Fill-35" fill="#FFFFFF" fill-rule="nonzero" mask="url(#mask-48)"></path>
            </g>
            <g id="Fill-36-Clipped">
                <mask id="mask-50" fill="white">
                    <use xlink:href="#path-49"></use>
                </mask>
                <g id="path-1"></g>
                <polygon id="Fill-36" fill="#FFFFFF" fill-rule="nonzero" mask="url(#mask-50)" points="257.0303 76.9219 253.0573 76.9219 244.6043 55.8919 248.5733 55.8919 255.0423 71.5969 261.5123 55.8919 265.4813 55.8919"></polygon>
            </g>
            <g id="Fill-37-Clipped">
                <mask id="mask-52" fill="white">
                    <use xlink:href="#path-51"></use>
                </mask>
                <g id="path-1"></g>
                <polygon id="Fill-37" fill="#FFFFFF" fill-rule="nonzero" mask="url(#mask-52)" points="286.7256 55.8916 286.7256 59.2296 275.5026 59.2296 275.5026 64.7946 285.5806 64.7946 285.5806 67.9576 275.5026 67.9576 275.5026 73.5816 287.0866 73.5816 287.0866 76.9216 271.9506 76.9216 271.9506 55.8916"></polygon>
            </g>
            <g id="Fill-38-Clipped">
                <mask id="mask-54" fill="white">
                    <use xlink:href="#path-53"></use>
                </mask>
                <g id="path-1"></g>
                <path d="M307.1533,65.7012 C307.8763,65.0802 308.2353,64.0802 308.2353,62.7052 C308.2353,61.3332 307.8643,60.3882 307.1223,59.8782 C306.3803,59.3662 305.0553,59.1102 303.1493,59.1102 L298.6393,59.1102 L298.6393,66.6332 L303.0593,66.6332 C305.0653,66.6332 306.4303,66.3212 307.1533,65.7012 M311.8743,62.7212 C311.8743,66.1902 310.3623,68.3792 307.3353,69.2802 L312.8373,76.9222 L308.3273,76.9222 L303.2993,69.8532 L298.6393,69.8532 L298.6393,76.9222 L295.0873,76.9222 L295.0873,55.8912 L302.9093,55.8912 C306.1183,55.8912 308.4173,56.4342 309.7993,57.5162 C311.1843,58.5992 311.8743,60.3382 311.8743,62.7212" id="Fill-38" fill="#FFFFFF" fill-rule="nonzero" mask="url(#mask-54)"></path>
            </g>
            <g id="Fill-39-Clipped">
                <mask id="mask-56" fill="white">
                    <use xlink:href="#path-55"></use>
                </mask>
                <g id="path-1"></g>
                <path d="M324.001,73.6445 L329.569,73.6445 C330.872,73.6445 331.87,73.4385 332.562,73.0275 C333.253,72.6165 333.601,71.8365 333.601,70.6955 C333.601,68.8285 332.105,67.8935 329.118,67.8935 L324.001,67.8935 L324.001,73.6445 Z M324.001,64.6165 L328.515,64.6165 C331.083,64.6165 332.364,63.7455 332.364,61.9985 C332.364,60.9965 332.056,60.2755 331.433,59.8315 C330.81,59.3915 329.849,59.1725 328.546,59.1725 L324.001,59.1725 L324.001,64.6165 Z M329.659,76.9215 L320.452,76.9215 L320.452,55.8915 L328.634,55.8915 C330.058,55.8915 331.288,56.0635 332.321,56.4025 C333.353,56.7455 334.12,57.2055 334.622,57.7865 C335.585,58.8705 336.067,60.0925 336.067,61.4575 C336.067,63.1055 335.544,64.3265 334.503,65.1275 C334.12,65.4095 333.86,65.5825 333.72,65.6545 C333.579,65.7235 333.329,65.8415 332.968,66.0025 C334.271,66.2835 335.31,66.8685 336.083,67.7585 C336.853,68.6535 337.239,69.7615 337.239,71.0825 C337.239,72.5495 336.737,73.8415 335.737,74.9685 C334.552,76.2705 332.524,76.9215 329.659,76.9215 Z" id="Fill-39" fill="#FFFFFF" fill-rule="nonzero" mask="url(#mask-56)"></path>
            </g>
            <g id="Fill-40-Clipped">
                <mask id="mask-58" fill="white">
                    <use xlink:href="#path-57"></use>
                </mask>
                <g id="path-1"></g>
                <path d="M356.9775,68.8594 L353.1575,60.1954 L349.3345,68.8594 L356.9775,68.8594 Z M347.8895,72.1384 L345.7845,76.9224 L341.9935,76.9224 L351.2605,55.8914 L355.0495,55.8914 L364.3175,76.9224 L360.5265,76.9224 L358.4185,72.1384 L347.8895,72.1384 Z" id="Fill-40" fill="#FFFFFF" fill-rule="nonzero" mask="url(#mask-58)"></path>
            </g>
            <g id="Fill-41-Clipped">
                <mask id="mask-60" fill="white">
                    <use xlink:href="#path-59"></use>
                </mask>
                <g id="path-1"></g>
                <polygon id="Fill-41" fill="#FFFFFF" fill-rule="nonzero" mask="url(#mask-60)" points="386.46 55.8916 390.013 55.8916 390.013 76.9216 386.159 76.9216 374.247 61.5796 374.247 76.9216 370.694 76.9216 370.694 55.8916 374.247 55.8916 386.46 71.5966"></polygon>
            </g>
            <g id="Fill-42-Clipped">
                <mask id="mask-62" fill="white">
                    <use xlink:href="#path-61"></use>
                </mask>
                <g id="path-1"></g>
                <path d="M414.6846,66.3906 C414.6846,61.5786 411.9246,59.1726 406.4096,59.1726 L402.8586,59.1726 L402.8586,73.5816 L406.7976,73.5816 C409.3486,73.5816 411.2976,72.9746 412.6536,71.7646 C414.0046,70.5486 414.6846,68.7576 414.6846,66.3906 M415.2236,58.6436 C417.2506,60.4816 418.2626,63.0326 418.2626,66.2996 C418.2626,69.5706 417.2806,72.1586 415.3136,74.0636 C413.3486,75.9706 410.3406,76.9216 406.2886,76.9216 L399.3076,76.9216 L399.3076,55.8916 L406.5286,55.8916 C410.2996,55.8916 413.1986,56.8096 415.2236,58.6436" id="Fill-42" fill="#FFFFFF" fill-rule="nonzero" mask="url(#mask-62)"></path>
            </g>
            <g id="Fill-43-Clipped">
                <mask id="mask-64" fill="white">
                    <use xlink:href="#path-63"></use>
                </mask>
                <g id="path-1"></g>
                <path d="M115.8984,87.2754 C115.4394,87.2754 115.0694,87.1104 115.0694,86.9114 L115.0694,84.7524 C115.0694,84.5494 115.4394,84.3854 115.8984,84.3854 L421.5264,84.3854 C421.9874,84.3854 422.3624,84.5494 422.3624,84.7524 L422.3624,86.9114 C422.3624,87.1104 421.9874,87.2754 421.5264,87.2754 L115.8984,87.2754 Z" id="Fill-43" fill="#FFFFFF" fill-rule="nonzero" mask="url(#mask-64)"></path>
            </g>
            <g id="Fill-44-Clipped">
                <mask id="mask-66" fill="white">
                    <use xlink:href="#path-65"></use>
                </mask>
                <g id="path-1"></g>
                <path d="M115.9014,14.8247 C115.4434,14.8247 115.0694,14.6627 115.0694,14.4597 L115.0694,12.2997 C115.0694,12.0997 115.4434,11.9347 115.9014,11.9347 L421.5264,11.9347 C421.9874,11.9347 422.3624,12.0997 422.3624,12.2997 L422.3624,14.4597 C422.3624,14.6627 421.9874,14.8247 421.5264,14.8247 L115.9014,14.8247 Z" id="Fill-44" fill="#FFFFFF" fill-rule="nonzero" mask="url(#mask-66)"></path>
            </g>
        </g>
    </g>
</svg>